<?xml version="1.0" encoding="utf-8"?>
<!-- Generator: Adobe Illustrator 17.1.0, SVG Export Plug-In . SVG Version: 6.00 Build 0)  -->
<!DOCTYPE svg PUBLIC "-//W3C//DTD SVG 1.1//EN" "http://www.w3.org/Graphics/SVG/1.1/DTD/svg11.dtd">
<svg version="1.1" id="Layer_1" xmlns="http://www.w3.org/2000/svg" xmlns:xlink="http://www.w3.org/1999/xlink" x="0px" y="0px"
	 viewBox="0 0 500 500" enable-background="new 0 0 500 500" xml:space="preserve">
<path fill="#FFFFFF" d="M364.966,226.482H338.85c1.903,7.386,3.027,15.104,3.027,23.084c0,50.987-41.324,92.309-92.303,92.309
	c-50.977,0-92.303-41.321-92.303-92.309c0-7.98,1.129-15.698,3.032-23.084h-26.119v126.933c0,6.363,5.168,11.529,11.55,11.529
	h207.683c6.382,0,11.55-5.165,11.55-11.529L364.966,226.482L364.966,226.482z M364.966,145.719c0-6.369-5.168-11.537-11.55-11.537
	h-34.608c-6.374,0-11.537,5.168-11.537,11.537v34.621c0,6.369,5.163,11.537,11.537,11.537h34.608c6.382,0,11.55-5.168,11.55-11.537
	V145.719z M249.573,191.877c-31.865,0-57.693,25.825-57.693,57.69c0,31.86,25.828,57.698,57.693,57.698s57.698-25.838,57.698-57.698
	C307.271,217.702,281.438,191.877,249.573,191.877 M364.966,399.571H134.183c-19.112,0-34.608-15.502-34.608-34.627V134.182
	c0-19.114,15.497-34.608,34.608-34.608h230.784c19.114,0,34.608,15.494,34.608,34.608v230.762
	C399.574,384.069,384.081,399.571,364.966,399.571"/>
</svg>
