<?xml version="1.0" encoding="utf-8"?>
<!-- Generator: Adobe Illustrator 17.1.0, SVG Export Plug-In . SVG Version: 6.00 Build 0)  -->
<!DOCTYPE svg PUBLIC "-//W3C//DTD SVG 1.1//EN" "http://www.w3.org/Graphics/SVG/1.1/DTD/svg11.dtd">
<svg version="1.1" id="Layer_1" xmlns="http://www.w3.org/2000/svg" xmlns:xlink="http://www.w3.org/1999/xlink" x="0px" y="0px"
	 viewBox="0 0 500 500" enable-background="new 0 0 500 500" xml:space="preserve">
<path fill="#FFFFFF" d="M400,156.959c-11.038,4.895-22.899,8.205-35.351,9.692c12.708-7.617,22.468-19.68,27.062-34.051
	c-11.892,7.054-25.064,12.176-39.084,14.936c-11.227-11.962-27.224-19.437-44.925-19.437c-33.993,0-61.551,27.557-61.551,61.547
	c0,4.824,0.544,9.522,1.593,14.026c-51.152-2.567-96.504-27.07-126.861-64.308c-5.298,9.09-8.333,19.663-8.333,30.943
	c0,21.353,10.866,40.192,27.381,51.23c-10.089-0.319-19.58-3.088-27.878-7.699c-0.004,0.257-0.005,0.515-0.005,0.774
	c0,29.821,21.216,54.698,49.372,60.352c-5.165,1.406-10.602,2.158-16.215,2.158c-3.966,0-7.822-0.386-11.58-1.104
	c7.833,24.452,30.563,42.247,57.495,42.744c-21.064,16.507-47.603,26.347-76.439,26.347c-4.968,0-9.867-0.292-14.682-0.859
	c27.238,17.463,59.591,27.652,94.348,27.652c113.211,0,175.118-93.786,175.118-175.119c0-2.669-0.06-5.323-0.178-7.962
	C381.312,180.143,391.748,169.302,400,156.959z"/>
</svg>
