<?xml version="1.0" encoding="utf-8"?>
<!-- Generator: Adobe Illustrator 17.1.0, SVG Export Plug-In . SVG Version: 6.00 Build 0)  -->
<!DOCTYPE svg PUBLIC "-//W3C//DTD SVG 1.1//EN" "http://www.w3.org/Graphics/SVG/1.1/DTD/svg11.dtd">
<svg version="1.1" id="YouTube_Icon" xmlns="http://www.w3.org/2000/svg" xmlns:xlink="http://www.w3.org/1999/xlink" x="0px"
	 y="0px" viewBox="0 0 500 500" enable-background="new 0 0 500 500" xml:space="preserve">
<g>
	<path id="The_Sharpness" opacity="0.12" enable-background="new    " d="M219.259,204.625l71.088,47.469l9.973-5.176
		L219.259,204.625z"/>
	<g id="Lozenge">
		<g>
			<path fill="#FFFFFF" d="M397.248,190.022c0,0-2.931-20.673-11.926-29.777c-11.408-11.949-24.195-12.008-30.059-12.708
				c-41.981-3.035-104.954-3.035-104.954-3.035h-0.13c0,0-62.972,0-104.954,3.035c-5.864,0.699-18.647,0.759-30.059,12.708
				c-8.995,9.104-11.922,29.777-11.922,29.777s-3,24.277-3,48.554v22.76c0,24.277,3,48.554,3,48.554s2.927,20.674,11.922,29.777
				c11.412,11.949,26.403,11.571,33.079,12.823c24.001,2.301,101.999,3.014,101.999,3.014s63.038-0.095,105.019-3.129
				c5.864-0.7,18.651-0.759,30.059-12.708c8.995-9.104,11.926-29.777,11.926-29.777s2.996-24.277,2.996-48.554v-22.76
				C400.244,214.299,397.248,190.022,397.248,190.022z M219.272,288.917l-0.014-84.292l81.061,42.293L219.272,288.917z"/>
		</g>
	</g>
</g>
</svg>
